<svg width="182" height="383" viewBox="0 0 182 383" fill="none" xmlns="http://www.w3.org/2000/svg">
<path d="M52.9737 150.051L51.5041 150.479L52.4642 149.593L52.5756 149.49L52.6111 149.343L53.7034 144.821L53.8269 144.31L53.3104 144.212L47.8784 143.184L51.0933 137.986L51.118 137.946L51.1348 137.902L52.7556 133.681L55.2144 134.584L55.2618 134.602L55.3117 134.609L60.011 135.324L60.2319 135.357L60.4043 135.215L62.8309 133.215L62.8583 133.192L62.8823 133.166L64.1284 131.8L66.9467 132.716L67.1586 132.785L67.3515 132.673L69.9151 131.191L70.2185 131.015L70.157 130.67L69.1811 125.194L69.1089 124.789L68.6977 124.782L67.2278 124.755L67.1616 124.29L67.7274 122.535L69.4987 121.901L69.9884 121.726L69.7942 121.244L68.581 118.231L69.6251 115.965L69.8184 115.545L69.4155 115.32L63.6405 112.082L63.5327 112.021L63.4093 112.018L62.2788 111.988C64.5102 105.723 66.5044 99.5044 68.3788 93.3146L73.7095 94.0554L73.9795 94.0929L74.1573 93.8864L74.6735 93.2866L79.6734 93.8226L81.523 94.7258L81.7464 95.7419L81.8229 96.0897L82.1767 96.1311L86.1924 96.6012L86.2605 96.6091L86.3282 96.5985L86.6251 96.5518L86.0972 97.2745L83.8718 97.9181L83.5733 98.0044L83.5185 98.3102L82.3416 104.877L82.2875 105.179L82.5321 105.364L84.4542 106.818L83.7392 108.416L76.1648 113.25L75.7429 113.52L76.0127 113.941L78.4575 117.761L78.5161 117.853L78.6074 117.912L80.2105 118.947L79.5468 123.382L79.5315 123.485L79.5581 123.585L81.5253 130.981L79.8446 135.788L79.7755 135.985L79.8679 136.173L82.2075 140.933L82.3115 141.145L82.541 141.199L85.1516 141.818L85.4742 143.171L85.0317 145.695L82.4086 145.589L82.2057 145.581L82.0545 145.716L81.3202 146.374L76.4803 146.123L76.3726 146.118L76.2721 146.157L71.6721 147.957L71.3252 148.093L71.356 148.464L71.493 150.112L64.2768 151.23L64.1691 151.246L64.0781 151.306L61.5961 152.943L61.4303 153.052L61.423 153.083L59.1555 154.352L57.1296 151.027L57.0172 150.843L56.8058 150.798L53.2169 150.041L53.0942 150.015L52.9737 150.051ZM48.7926 153.795L49.849 152.604L50.0888 153.248L48.9817 153.843L48.7926 153.795Z" stroke="black"/>
</svg>
