<svg width="182" height="383" viewBox="0 0 182 383" fill="none" xmlns="http://www.w3.org/2000/svg">
<path d="M102.74 78.2662L104.188 79.1374L95.3724 84.3125L90.3696 86.1023L90.142 86.1837L90.0645 86.4127L88.0841 92.2595L86.8652 94.1731L86.5104 94.229L84.9306 94.0435L84.8352 93.6117L84.7831 93.3761L84.5663 93.2703L81.1681 91.6111L81.0893 91.5727L81.0021 91.5633L73.7446 90.7843L73.4837 90.7563L73.3125 90.955L72.838 91.5055L69.4821 91.0394C71.1638 85.3999 72.7767 79.7763 74.3664 74.167L74.3801 74.1187L74.3839 74.0685L74.6023 71.1915C76.3499 66.2685 77.4695 61.6305 78.7082 56.4503L78.7189 56.4053L78.7212 56.3592L78.9697 51.4339L81.6679 50.8818L84.3456 53.0353L84.6594 53.2877L84.9728 53.0348L91.7683 47.5534L91.9116 47.4378L91.9457 47.2569L91.9958 46.9911L92.9294 48.0145L93.021 50.542L93.0334 50.883L93.3553 50.9958L97.6513 52.5014L97.4367 53.6448L97.3949 53.8674L97.5347 54.0456L98.9894 55.9003L96.2448 62.1896L94.3673 63.1366L93.9186 63.3629L94.1472 63.8104L95.0405 65.5593L89.0368 69.2674L88.9151 69.3426L88.8516 69.4707L88.1567 70.8722L85.081 72.2686L84.5486 72.5103L84.87 72.9988L87.0072 76.2463L85.8422 77.2057L85.2104 77.726L85.9616 78.0507L90.2505 79.9045L92.1668 81.507L92.3268 81.6409L92.5345 81.6213L99.243 80.9877L99.3931 80.9735L99.5104 80.8786L102.74 78.2662Z" stroke="black"/>
</svg>
