<svg width="182" height="383" viewBox="0 0 182 383" fill="none" xmlns="http://www.w3.org/2000/svg">
<path d="M78.4567 148.995L78.0069 149.399L78.6048 149.743L81.2343 151.26L81.3703 151.338L81.5266 151.325L86.2465 150.922L86.3736 150.911L86.4801 150.841L89.724 148.692L90.986 148.86L92.2322 149.958L92.2816 150.002L92.3406 150.031L98.2545 152.964L98.3595 153.016H98.4767H104.983H105.626L105.468 152.393L105.36 151.97L106.862 152.254L107.225 152.322L107.397 151.996L108.501 149.906L110.055 150.175L109.957 153.979L109.956 154.016L109.961 154.052L110.418 157.817L108.807 160.099L103.179 159.152L97.891 157.947L97.6316 157.888L97.4376 158.07L95.5898 159.806L93.9061 159.85L93.6977 159.855L93.5548 160.007L91.0903 162.629L82.9661 166.449L82.9423 166.46L82.9198 166.473L80.2198 168.109L80.1638 168.143L80.1184 168.19L77.8865 170.512L76.2051 169.915L69.6244 166.346L69.5457 160.267L70.0488 157.134L70.1243 156.665L69.6586 156.566L66.2881 155.853L64.9763 154.229L65.5646 153.841L74.4718 152.462L74.932 152.391L74.8936 151.927L74.7189 149.816L77.0051 148.92L78.4567 148.995Z" stroke="black"/>
</svg>
