<svg width="182" height="383" viewBox="0 0 182 383" fill="none" xmlns="http://www.w3.org/2000/svg">
<path d="M144.249 95.5165L143.65 99.7057L143.635 99.807L143.662 99.906L144.933 104.646L144.439 108.761L144.432 108.813L144.437 108.866L144.805 112.904L142.546 118.219L142.507 118.312L142.507 118.412L142.476 123.59L139.848 127.314L139.696 127.53L139.788 127.777L141.658 132.802L142.011 139.139L140.602 139.513L140.039 139.663L140.273 140.197L142.461 145.189L144.286 155.934C143.414 157.382 141.998 160.607 140.292 165.045C138.541 169.602 136.468 175.48 134.339 182.131L126.606 182.178L126.464 182.179L126.343 182.254L107.692 193.934L98.3165 195.436L83.9895 195.132L83.9372 195.131L83.8859 195.14L74.7471 196.87L72.4709 195.673L70.7219 192.873L72.3018 190.102L78.1307 182.241L78.237 182.098L78.2286 181.92L77.9634 176.301L79.5556 173.152L82.4408 170.15L84.72 168.769L93.1765 164.794L93.2628 164.753L93.3282 164.684L95.3328 162.55L96.9166 162.509L97.1072 162.504L97.2462 162.374L98.7321 160.977L102.401 161.815L102.415 161.818L102.43 161.82L110.134 163.115L110.444 163.168L110.625 162.911L113.652 158.621L113.763 158.463L113.74 158.272L113.214 153.939L113.356 148.449L113.367 148.017L112.941 147.943L110.016 147.436L108.904 143.651L108.791 143.266L108.39 143.293L105.08 143.521L104.669 143.55L104.618 143.959L104.317 146.4L104.298 146.554L104.37 146.693L105.509 148.87L105.325 149.219L101.892 148.57L101.12 148.424L101.315 149.185L101.611 150.343H99.2681L94.3468 147.903L92.7202 146.467L92.6059 146.366L92.4548 146.346L88.9975 145.888L88.8119 145.864L88.6559 145.967L88.2347 146.246L88.7516 143.292L88.7694 143.191L88.7456 143.09L88.0248 140.058L87.9535 139.758L87.6534 139.687L84.7229 138.994L83.2135 135.924L84.8278 131.311L84.8785 131.166L84.839 131.017L82.8257 123.445L83.6162 118.158L83.6639 117.839L83.3931 117.664L81.0597 116.157L79.9132 114.365L86.3308 110.267L86.4569 110.187L86.518 110.05L88.1091 106.5L88.2718 106.137L87.9546 105.897L85.7597 104.236L86.4973 100.116L88.108 99.6489L88.2716 99.6015L88.3722 99.464L90.6067 96.4092L90.8838 96.0304L90.5233 95.73L89.5654 94.9316L90.754 93.0647L90.7864 93.0138L90.8058 92.9566L92.5213 87.8925L96.6048 86.431L96.6489 86.4152L96.6894 86.3915L107.525 80.0319L109.734 81.7373L109.797 81.7862L109.872 81.8129L114.186 83.3406L114.261 83.3671L114.34 83.3691L118.605 83.4768L118.687 83.4789L118.766 83.4546L121.258 82.6827L126.55 83.9675L127.173 86.0019L127.194 86.071L127.234 86.1313L127.965 87.2374L127.085 89.4999L126.974 89.7858L127.178 90.0145L130.869 94.1406L131.119 94.4197L131.457 94.2587L133.493 93.289L142.681 95.411L142.721 95.4203L142.762 95.4228L144.249 95.5165ZM83.7794 148.445L83.5314 148.466L83.5648 148.436L83.7794 148.445Z" stroke="black"/>
</svg>
