<svg width="182" height="383" viewBox="0 0 182 383" fill="none" xmlns="http://www.w3.org/2000/svg">
<path d="M172.08 1.96528L168.652 5.11357L168.199 5.53033L168.7 5.88857L172.507 8.60947L172.38 12.8432L172.37 13.1839L172.684 13.3179L175.196 14.3913L175.573 17.0763L173.119 20.088L172.986 20.2504L173.009 20.4585L173.188 22.0825L173.223 22.401L173.527 22.5022L176.61 23.5293L179.142 34.9604L179.158 35.0332L179.195 35.0981L181.363 38.9376L178.543 41.3767L178.464 41.445L178.419 41.5391L176.542 45.4643L176.52 45.5107L176.507 45.5607L175.468 49.7892L165.638 59.5548L158.017 62.0556L157.772 62.136L157.695 62.3823L157.092 64.322L153.536 64.2303L153.333 64.2251L153.184 64.3627L149.962 67.3361L145.361 69.9813L144.95 70.2177L145.164 70.6408L146.58 73.4341L146.411 77.3443L144.745 81.4259L144.623 81.7239L144.844 81.958L146.275 83.4742L146.316 86.755L144.603 89.5417L144.532 89.657L144.529 89.7923L144.462 92.7858L143.288 92.7119L133.214 90.3852L133.043 90.3458L132.886 90.4211L132.004 90.8416L130.585 89.2556L131.398 87.1634L131.491 86.9222L131.349 86.7064L130.237 85.0269L129.323 82.0424L129.24 81.7701L128.963 81.703L121.263 79.834L121.129 79.8015L120.997 79.8422L118.135 80.7273L114.976 80.6474L111.6 79.453L108.069 76.7241L107.801 76.5174L107.51 76.6885L106.663 77.1857L102.394 74.6155L102.094 74.4349L101.822 74.6551L97.5723 78.091L93.1938 78.5046L91.9291 77.4455L91.8734 77.3988L91.8067 77.3699L90.3442 76.737L90.36 76.724L90.7073 76.4385L90.4602 76.0629L88.6345 73.2878L90.2272 72.5647L90.3893 72.4911L90.4684 72.3316L91.2419 70.7725L98.3128 66.4065L98.7053 66.1641L98.4952 65.7533L97.6818 64.1633L98.4141 63.7939L98.5751 63.7127L98.6472 63.5475L102.149 55.5239L102.269 55.2501L102.084 55.0152L100.465 52.9528L100.844 50.9506L100.924 50.528L100.518 50.3858L95.8836 48.7613L95.8165 46.9421L95.8097 46.759L95.6863 46.6237L92.5946 43.2333L92.456 43.0812L92.3401 43.0753L92.5909 41.7461L92.6933 41.203L92.1426 41.1553L91.1497 41.0694L92.6235 34.5926L95.3823 27.453L95.4186 27.3589L95.4157 27.2581L95.3413 24.7273H99.4877L105.133 25.4677L105.373 25.4992L105.547 25.3302L106.903 24.0103L108.724 24.5384L108.817 24.5654L108.914 24.5557L117.747 23.6662L121.915 27.9917L122.074 28.1566L122.302 28.144L130.304 27.7043L130.554 27.6906L130.693 27.483L132.43 24.8845L138.167 24.6254L138.559 24.6077L138.635 24.2227L139.014 22.3028L140.765 22.049L141.062 22.0059L141.163 21.7237L141.968 19.4905L141.988 19.4361L141.995 19.3786L142.795 12.4771L143.924 8.169L146.066 5.20662L147.446 7.03508L147.5 7.10667L147.576 7.15501L151.331 9.55727L152.114 10.0578L152.101 9.12909L152.063 6.47954L155.914 6.65779L156.058 6.66446L156.183 6.59345L161.503 3.58201L161.63 3.51033L161.698 3.38189L162.785 1.34124L168.957 0.514941L172.08 1.96528Z" stroke="black"/>
</svg>
