<svg width="182" height="383" viewBox="0 0 182 383" fill="none" xmlns="http://www.w3.org/2000/svg">
<path d="M34.1124 177.702L26.144 172.878C31.1009 167.528 35.4212 162.286 39.8899 156.161L39.9011 156.145L39.9112 156.129L46.3355 145.743L50.0054 146.437L49.5578 148.295L48.8015 148.992L45.1428 149.495L44.1718 149.629L44.8498 150.337L46.4179 151.974L43.9644 154.742L43.417 155.36L44.218 155.559L49.298 156.822L49.4852 156.869L49.6552 156.777L53.5379 154.692L53.9216 154.486L53.77 154.077L53.3461 152.935L54.7717 153.237L57.6585 157.976L57.9092 158.387L58.3297 158.152L62.3767 155.887L64.1607 158.096L64.2724 158.234L64.4463 158.271L66.5143 158.708L66.2958 160.071L66.289 160.113L66.2896 160.156L66.3854 167.547L66.3892 167.84L66.6469 167.98L74.6155 172.305L74.6499 172.323L74.6868 172.337L76.1582 172.859L74.7403 175.664L74.6808 175.782L74.6871 175.913L74.9446 181.354L69.4536 188.755L69.4357 188.779L69.4208 188.805L67.2293 192.65L67.0816 192.91L67.2397 193.163L69.9117 197.44L69.9834 197.555L70.1031 197.618L73.9872 199.66L74.1415 199.741L74.3128 199.709L84.2646 197.826L98.5397 198.128L98.5848 198.129L98.6294 198.122L108.956 196.467L109.056 196.451L109.142 196.398L127.567 184.859L133.481 184.823C131.487 191.203 129.477 198.137 127.66 205.341L127.651 205.377L127.647 205.415L127.276 209.279L127.256 209.486L127.389 209.646L133.645 217.163L133.054 222.27L130.595 226.89L130.559 226.957L130.545 227.032L128.542 237.648L124.741 239.039L124.616 239.084L124.531 239.185L119.837 244.734L119.686 244.913L119.726 245.144L120.525 249.694L116.46 253.028L116.322 253.141L116.287 253.317L115.316 258.157L112.689 263.394L105.124 272.656L105.024 272.779L105.013 272.938L104.704 277.413L103.087 282.639L99.0562 288.909L98.8629 289.21L99.085 289.49L102.485 293.779L102.978 297.728L100.382 300.98L100.241 301.158L100.281 301.381L100.52 302.708L98.0445 307.737L97.9166 307.997L98.0783 308.237L99.2362 309.957L101.496 319.069L100.226 321.704L94.5667 327.26L94.4994 327.326L94.4608 327.412L90.3929 336.48L90.3506 336.574L90.3491 336.677L90.2596 342.802L90.2594 342.818L90.2602 342.834L90.4327 346.226L85.4182 356.647L84.3391 357.953L84.2337 358.081L84.2253 358.246L84.0018 362.645L84.0016 362.652L83.8285 367.332L79.1414 373.5L79.0086 373.675L79.0474 373.891L79.5351 376.607L77.43 376.059L77.1618 375.989L76.9604 376.18L73.7473 379.22L73.7418 379.225L71.3792 381.325L68.6098 376.897L67.298 372.473L68.1453 370.934L68.1944 370.845L68.2047 370.743L68.5841 367.011L68.6015 366.84L68.5104 366.695L66.2244 363.047L64.9134 355.155L64.9032 355.093L64.8781 355.036L38.4526 294.744L38.3865 294.593L38.2436 294.511L30.9084 290.3V287.508L32.403 282.7L32.5021 282.381L32.2454 282.167L28.0093 278.64L28.2526 272.378L28.2553 272.308L28.2384 272.239L26.2787 264.296L26.2609 264.223L26.2229 264.16L14.9253 245.194L0.610222 210.37L3.75095 208.035L6.99532 207.34L7.18292 207.299L7.29548 207.144L9.36758 204.284L12.2826 202.951L12.6505 202.783L12.5629 202.388L11.1696 196.107L12.6108 194.722L12.6442 194.69L12.671 194.653L13.4467 193.569L20.2102 188.592L20.2272 188.579L20.2431 188.565L24.2537 185.055L28.0531 182.822L32.1564 181.511L32.3288 181.456L32.426 181.304L34.2752 178.399L34.5498 177.967L34.1124 177.702Z" stroke="black"/>
</svg>
