<svg width="182" height="383" viewBox="0 0 182 383" fill="none" xmlns="http://www.w3.org/2000/svg">
<path d="M65.946 120.259L65.2207 120.519L64.9889 120.602L64.9135 120.837L63.8901 124.016L63.8548 124.125L63.871 124.239L64.2661 127.026L64.3259 127.448L64.7521 127.455L66.2892 127.483L66.6972 129.766L63.3227 128.669L63.0161 128.569L62.7988 128.808L60.3985 131.437L59.1363 132.478L56.2357 132.037L53.7491 131.123L54.9091 128.101L56.1713 127.444L56.3308 127.361L56.4009 127.196C58.1781 122.995 59.8035 118.823 61.3246 114.67L61.4823 114.703L61.5254 114.712L61.5695 114.713L62.4772 114.737L65.8473 116.627L65.2093 118.009L65.1188 118.205L65.1994 118.406L65.946 120.259Z" stroke="black"/>
</svg>
